<?xml version="1.0" standalone="no"?>
<!DOCTYPE svg PUBLIC "-//W3C//DTD SVG 20010904//EN"
 "http://www.w3.org/TR/2001/REC-SVG-20010904/DTD/svg10.dtd">
<svg version="1.0" xmlns="http://www.w3.org/2000/svg"
 width="500.000000pt" height="500.000000pt" viewBox="0 0 500.000000 500.000000"
 preserveAspectRatio="xMidYMid meet">
<metadata>
Created by potrace 1.14, written by Peter Selinger 2001-2017
</metadata>
<g transform="translate(0.000000,500.000000) scale(0.100000,-0.100000)"
fill="#000000" stroke="none">
<path d="M3345 4937 c-65 -37 -126 -81 -170 -122 -27 -25 -72 -61 -100 -80
-27 -19 -59 -42 -70 -52 -31 -29 -146 -116 -185 -140 -38 -23 -49 -23 -195 1
-133 22 -580 9 -624 -18 -3 -3 -26 -7 -50 -11 -25 -4 -92 -18 -150 -32 -124
-29 -161 -30 -175 -6 -12 22 -86 93 -97 93 -4 0 -28 19 -52 43 -54 51 -134
119 -156 131 -9 5 -20 14 -26 21 -22 27 -151 107 -180 112 -51 8 -58 -8 -94
-192 -11 -55 -21 -117 -26 -155 -2 -14 -6 -38 -9 -55 -6 -38 -15 -123 -21
-200 -3 -32 -7 -73 -10 -90 -2 -16 -7 -91 -10 -165 -6 -149 -7 -152 -41 -228
-13 -29 -24 -55 -24 -59 0 -3 -13 -33 -30 -67 -16 -34 -45 -101 -63 -151 -19
-49 -49 -129 -67 -176 l-33 -87 -66 -6 c-36 -4 -111 -22 -168 -41 -57 -19
-107 -35 -112 -35 -6 0 -22 -5 -38 -12 -15 -6 -31 -12 -35 -12 -21 -3 -13 -12
13 -14 18 -2 28 2 24 8 -3 6 0 7 9 4 9 -3 37 -1 63 5 27 7 51 12 55 12 4 0 31
7 60 15 29 8 81 17 115 20 l62 6 -18 -58 c-10 -33 -25 -76 -34 -97 -17 -40
-17 -39 -17 -61 0 -7 -8 -16 -18 -19 -43 -13 -251 -96 -290 -116 -66 -34 -48
-52 23 -22 17 7 39 15 50 17 11 2 62 17 113 33 l93 29 -7 -31 c-4 -18 -22 -78
-40 -134 -19 -56 -34 -108 -34 -117 0 -9 -31 -30 -76 -52 -41 -21 -81 -45 -87
-54 -7 -9 -19 -19 -27 -23 -32 -12 28 -7 73 7 35 10 49 11 56 2 13 -16 13 -23
-3 -54 -8 -15 -17 -44 -20 -65 -3 -21 -11 -48 -18 -60 -6 -12 -26 -89 -44
-172 -44 -204 -70 -317 -104 -465 -25 -105 -44 -196 -75 -358 -2 -13 -6 -31
-9 -40 -3 -9 -8 -33 -11 -52 -3 -19 -7 -46 -10 -60 -9 -47 -17 -95 -21 -125
-2 -16 -6 -46 -8 -65 -12 -82 -18 -148 -21 -243 -4 -119 6 -142 83 -179 26
-13 49 -25 52 -28 5 -5 19 -13 142 -79 43 -23 79 -41 80 -41 4 2 38 -10 63
-20 11 -5 45 -18 77 -29 31 -11 76 -29 100 -39 82 -36 198 -70 303 -87 17 -3
42 -8 57 -11 15 -3 40 -7 57 -9 16 -2 48 -9 71 -15 23 -6 57 -13 76 -16 18 -2
51 -6 72 -9 20 -2 69 -9 107 -14 140 -20 162 -23 305 -35 41 -4 93 -9 115 -12
199 -24 777 -23 900 1 20 4 98 14 170 21 70 7 109 11 145 17 19 4 58 9 85 12
28 3 64 7 80 10 17 2 71 9 120 15 50 7 104 14 120 17 17 2 46 6 65 9 19 2 43
7 53 10 11 3 29 7 40 9 12 1 40 6 62 10 67 13 79 15 110 21 17 3 48 10 70 15
22 6 65 16 95 24 170 42 196 54 215 99 22 52 4 159 -61 370 -45 144 -62 245
-45 255 21 13 353 4 536 -15 146 -14 189 -13 220 6 43 27 112 101 120 130 4
14 18 49 31 78 23 51 24 59 24 337 0 330 2 318 -107 545 -100 206 -194 340
-353 500 -102 102 -188 168 -273 208 -67 32 -185 62 -241 62 -35 0 -170 -44
-194 -63 -7 -5 -15 -7 -19 -4 -3 4 -11 3 -17 -3 -33 -27 -51 31 -62 202 l-6
97 38 6 c22 3 71 14 109 23 89 22 499 22 675 1 114 -14 206 -12 150 4 -34 9
-32 8 -56 18 -12 4 -42 10 -65 14 -47 6 -145 22 -218 35 -125 23 -463 7 -606
-29 -22 -6 -43 -11 -46 -11 -13 0 -20 102 -8 116 11 14 171 67 250 83 155 31
262 51 314 56 33 4 71 8 85 10 14 2 81 7 150 11 69 3 132 11 140 16 12 8 12 9
-2 4 -9 -3 -18 0 -21 7 -2 8 -50 11 -158 12 -239 0 -303 -8 -612 -80 -60 -13
-112 -27 -117 -30 -21 -13 -57 15 -68 53 -20 65 -16 115 11 132 52 34 286 136
432 190 28 10 64 25 80 33 17 9 73 25 125 37 52 11 115 26 139 34 40 11 42 14
20 19 -13 3 -38 5 -54 3 -123 -14 -152 -19 -189 -32 -22 -9 -56 -17 -74 -20
-48 -6 -289 -98 -410 -157 -58 -27 -107 -45 -112 -41 -14 14 -60 141 -85 234
-13 47 -28 100 -33 118 -12 37 -22 174 -27 382 -8 306 -27 543 -46 566 -14 17
-66 17 -94 1z m868 -2741 c19 -39 52 -184 44 -192 -2 -3 -62 -7 -133 -9 -71
-2 -140 -7 -154 -10 -74 -18 -87 -17 -93 7 -8 35 1 89 18 108 9 10 18 30 21
46 3 15 7 31 9 34 3 4 45 9 94 12 66 4 98 11 123 26 42 26 49 24 71 -22z"/>
</g>
</svg>
